<?xml version="1.0" standalone="no"?>
<!DOCTYPE svg PUBLIC "-//W3C//DTD SVG 20010904//EN" "http://www.w3.org/TR/2001/REC-SVG-20010904/DTD/svg10.dtd">
<svg version="1.0" xmlns="http://www.w3.org/2000/svg" width="235.000000pt" height="235.000000pt"
    viewBox="0 0 235.000000 235.000000" preserveAspectRatio="xMidYMid meet">

    <g transform="translate(0.000000,235.000000) scale(0.100000,-0.100000)" fill="#ffffffff" stroke="none">
        <path d="M412 2295 c-187 -51 -328 -197 -362 -374 -6 -33 -10 -319 -10 -753 0
-679 1 -700 21 -760 55 -164 191 -288 364 -333 88 -22 1381 -23 1470 0 193 49
337 189 374 363 15 74 15 1410 0 1484 -18 82 -66 171 -127 233 -62 63 -111 94
-198 127 -59 23 -60 23 -769 25 -593 2 -719 0 -763 -12z m1011 -159 c185 -55
319 -137 445 -272 165 -176 248 -378 259 -629 6 -153 -11 -272 -58 -405 -17
-47 -33 -93 -36 -102 -4 -12 4 -23 26 -35 36 -21 38 -31 10 -67 -18 -22 -28
-26 -75 -26 l-54 0 0 -55 c0 -44 4 -57 18 -61 105 -32 127 -54 99 -98 -13 -20
-28 -23 -148 -35 -119 -11 -670 -85 -1039 -141 -218 -32 -348 -24 -473 29 -50
22 -157 115 -157 137 0 25 35 34 91 24 28 -6 53 -10 55 -10 2 0 4 24 4 54 l0
54 -49 17 c-61 20 -101 50 -101 75 0 20 46 50 75 50 13 0 9 13 -19 63 -46 82
-92 222 -107 326 -16 114 -7 313 20 416 70 267 260 500 506 623 93 46 126 57
243 83 129 28 343 21 465 -15z" />
        <path d="M990 1985 c-383 -81 -639 -404 -640 -803 0 -170 47 -327 142 -468
l49 -74 92 0 c112 0 236 14 692 79 193 28 382 53 420 56 112 10 109 8 143 82
48 106 63 169 69 285 6 116 -7 225 -37 313 -86 250 -284 441 -537 517 -89 26
-299 34 -393 13z m186 -128 c9 -28 18 -33 67 -45 31 -8 57 -18 57 -22 0 -4
-21 -11 -46 -15 -66 -9 -72 -13 -79 -46 -10 -42 -23 -44 -39 -5 -11 27 -23 37
-53 45 -21 6 -48 11 -61 11 -39 0 -16 16 43 29 36 8 58 19 61 29 22 70 31 74
50 19z m440 -245 c91 -46 104 -85 104 -305 0 -202 -10 -245 -71 -306 -111
-111 -293 -114 -387 -7 -17 20 -34 47 -37 59 -4 13 -5 111 -3 219 l3 196 30
44 c34 48 117 102 179 117 57 14 136 6 182 -17z m-600 -59 c51 -26 84 -75 84
-124 0 -42 -4 -45 -89 -58 -45 -7 -53 -6 -72 16 -33 34 -116 33 -158 -3 l-31
-26 0 -149 c0 -147 0 -149 25 -165 20 -13 37 -15 81 -9 64 8 104 38 104 78 0
23 -3 24 -50 19 l-50 -5 0 61 0 61 33 5 c17 3 59 10 91 16 33 5 75 10 94 10
l34 0 -3 -112 c-4 -101 -7 -118 -31 -159 -94 -160 -370 -187 -453 -45 -24 41
-25 49 -25 227 0 179 1 187 26 237 30 61 79 105 149 132 65 26 184 23 241 -7z" />
        <path d="M1401 1444 l-32 -28 0 -159 c0 -158 0 -159 25 -175 32 -21 97 -14
134 14 26 19 26 20 29 177 3 186 -1 195 -79 195 -36 0 -55 -6 -78 -26z" />
        <path d="M1678 643 l-28 -4 0 -101 c0 -87 2 -99 16 -94 9 3 20 6 25 6 5 0 9
16 9 35 0 47 25 47 66 -2 22 -26 36 -35 48 -30 16 7 16 9 -3 41 -21 33 -21 33
-1 51 26 23 26 59 0 85 -20 20 -61 24 -132 13z m97 -43 c10 -17 -12 -37 -45
-42 -25 -4 -30 -1 -30 17 0 12 3 25 7 28 10 11 61 8 68 -3z" />
        <path d="M1456 599 c-29 -23 -34 -60 -11 -79 8 -6 32 -14 55 -17 72 -10 38
-49 -36 -41 -23 2 -29 -1 -29 -17 0 -48 138 -21 151 29 9 36 -1 54 -31 61 -14
3 -37 7 -51 10 -41 9 -22 30 26 30 28 0 45 5 48 14 12 35 -80 43 -122 10z" />
        <path d="M1263 580 c-34 -14 -57 -54 -44 -79 11 -19 18 -23 74 -35 43 -10 27
-30 -29 -36 -36 -4 -50 -10 -52 -22 -3 -15 4 -18 48 -18 62 0 108 22 116 56 9
34 -12 54 -65 61 -23 3 -44 10 -47 14 -7 12 39 29 77 29 24 0 30 4 27 18 -4
20 -68 27 -105 12z" />
        <path d="M1048 553 l-38 -4 0 -100 c0 -73 3 -99 13 -99 11 0 51 8 125 25 12 3
22 12 22 21 0 13 -9 14 -55 9 -47 -6 -55 -5 -55 9 0 18 7 21 63 31 24 4 37 11
37 22 0 13 -9 15 -50 11 -44 -4 -50 -3 -50 13 0 12 10 21 28 24 119 24 90 52
-40 38z" />
        <path d="M900 462 c0 -72 -10 -92 -45 -92 -35 0 -45 20 -45 88 0 60 -1 63 -22
60 -22 -3 -23 -7 -21 -76 1 -42 8 -81 15 -89 21 -26 57 -34 99 -23 55 15 69
41 69 127 0 71 -1 73 -25 73 -24 0 -25 -2 -25 -68z" />
        <path d="M552 493 c-40 -7 -42 -58 -42 -93 0 -40 6 -41 29 -61 25 -24 37 -29
81 -29 74 0 80 41 90 65 l0 45 -39 0 c-40 0 -44 0 -50 -13 -2 -25 -5 -27 21
-27 32 0 14 -25 -20 -28 -40 -4 -76 29 -67 61 11 35 36 49 77 44 42 -6 74 17
47 34 -15 9 -105 11 -127 2z" />
    </g>
</svg>